<!-- icon666.com - MILLIONS vector ICONS FREE --><svg viewBox="0 0 512 512" xmlns="http://www.w3.org/2000/svg"><path d="m256 150.5c-58.171875 0-105.5 47.328125-105.5 105.5s47.328125 105.5 105.5 105.5 105.5-47.328125 105.5-105.5-47.324219-105.5-105.5-105.5zm0 0" fill="#000000" style="fill: rgb(255, 255, 255);"></path><path d="m460.410156 51.589844c-33.269531-33.269532-77.332031-51.589844-124.074218-51.589844h-160.671876c-46.742187 0-90.808593 18.320312-124.074218 51.589844-33.269532 33.265625-51.589844 77.332031-51.589844 124.074218v160.667969c0 46.746094 18.320312 90.8125 51.589844 124.078125 33.265625 33.269532 77.332031 51.589844 124.074218 51.589844h160.671876c46.742187 0 90.808593-18.320312 124.074218-51.589844 33.265625-33.265625 51.589844-77.332031 51.589844-124.078125v-160.667969c0-46.742187-18.324219-90.808593-51.589844-124.074218zm-204.410156 339.910156c-74.714844 0-135.5-60.785156-135.5-135.5s60.785156-135.5 135.5-135.5 135.5 60.785156 135.5 135.5-60.785156 135.5-135.5 135.5zm150.109375-264.394531c-2.789063 2.789062-6.660156 4.390625-10.605469 4.390625-3.949218 0-7.8125-1.601563-10.601562-4.390625-2.800782-2.792969-4.398438-6.660157-4.398438-10.609375 0-3.949219 1.597656-7.820313 4.398438-10.609375 2.789062-2.792969 6.648437-4.390625 10.601562-4.390625 3.945313 0 7.816406 1.597656 10.605469 4.390625 2.792969 2.789062 4.394531 6.660156 4.394531 10.609375 0 3.945312-1.601562 7.816406-4.394531 10.609375zm0 0" fill="#000000" style="fill: rgb(255, 255, 255);"></path></svg>